{
    "asset" : {
        "generator" : "Khronos glTF Blender I/O v1.6.16",
        "version" : "2.0"
    },
    "scene" : 0,
    "scenes" : [
        {
            "name" : "Scene",
            "nodes" : [
                0,
                1,
                2
            ]
        }
    ],
    "nodes" : [
        {
            "mesh" : 0,
            "name" : "Hole -col.001"
        },
        {
            "mesh" : 1,
            "name" : "Wall__TR.003"
        },
        {
            "mesh" : 2,
            "name" : "Wall__TR -colonly"
        }
    ],
    "materials" : [
        {
            "doubleSided" : true,
            "name" : "Material",
            "pbrMetallicRoughness" : {
                "baseColorTexture" : {
                    "index" : 0
                },
                "metallicFactor" : 0,
                "roughnessFactor" : 0.4000000059604645
            }
        }
    ],
    "meshes" : [
        {
            "name" : "Cube.120",
            "primitives" : [
                {
                    "attributes" : {
                        "POSITION" : 0,
                        "NORMAL" : 1,
                        "TEXCOORD_0" : 2
                    },
                    "indices" : 3,
                    "material" : 0
                }
            ]
        },
        {
            "name" : "Cube.149",
            "primitives" : [
                {
                    "attributes" : {
                        "POSITION" : 4,
                        "NORMAL" : 5,
                        "TEXCOORD_0" : 6
                    },
                    "indices" : 7,
                    "material" : 0
                }
            ]
        },
        {
            "name" : "Cube.150",
            "primitives" : [
                {
                    "attributes" : {
                        "POSITION" : 8,
                        "NORMAL" : 9,
                        "TEXCOORD_0" : 10
                    },
                    "indices" : 11,
                    "material" : 0
                }
            ]
        }
    ],
    "textures" : [
        {
            "sampler" : 0,
            "source" : 0
        }
    ],
    "images" : [
        {
            "bufferView" : 4,
            "mimeType" : "image/png",
            "name" : "Texture"
        }
    ],
    "accessors" : [
        {
            "bufferView" : 0,
            "componentType" : 5126,
            "count" : 983,
            "max" : [
                10,
                2,
                10
            ],
            "min" : [
                -10,
                -1,
                -10
            ],
            "type" : "VEC3"
        },
        {
            "bufferView" : 1,
            "componentType" : 5126,
            "count" : 983,
            "type" : "VEC3"
        },
        {
            "bufferView" : 2,
            "componentType" : 5126,
            "count" : 983,
            "type" : "VEC2"
        },
        {
            "bufferView" : 3,
            "componentType" : 5123,
            "count" : 2022,
            "type" : "SCALAR"
        },
        {
            "bufferView" : 5,
            "componentType" : 5126,
            "count" : 228,
            "max" : [
                10,
                2.0999999046325684,
                10.000001907348633
            ],
            "min" : [
                -10,
                1,
                -10.000000953674316
            ],
            "type" : "VEC3"
        },
        {
            "bufferView" : 6,
            "componentType" : 5126,
            "count" : 228,
            "type" : "VEC3"
        },
        {
            "bufferView" : 7,
            "componentType" : 5126,
            "count" : 228,
            "type" : "VEC2"
        },
        {
            "bufferView" : 8,
            "componentType" : 5123,
            "count" : 342,
            "type" : "SCALAR"
        },
        {
            "bufferView" : 9,
            "componentType" : 5126,
            "count" : 228,
            "max" : [
                10,
                3.5,
                10.000001907348633
            ],
            "min" : [
                -10,
                1,
                -10.000001907348633
            ],
            "type" : "VEC3"
        },
        {
            "bufferView" : 10,
            "componentType" : 5126,
            "count" : 228,
            "type" : "VEC3"
        },
        {
            "bufferView" : 11,
            "componentType" : 5126,
            "count" : 228,
            "type" : "VEC2"
        },
        {
            "bufferView" : 12,
            "componentType" : 5123,
            "count" : 342,
            "type" : "SCALAR"
        }
    ],
    "bufferViews" : [
        {
            "buffer" : 0,
            "byteLength" : 11796,
            "byteOffset" : 0
        },
        {
            "buffer" : 0,
            "byteLength" : 11796,
            "byteOffset" : 11796
        },
        {
            "buffer" : 0,
            "byteLength" : 7864,
            "byteOffset" : 23592
        },
        {
            "buffer" : 0,
            "byteLength" : 4044,
            "byteOffset" : 31456
        },
        {
            "buffer" : 0,
            "byteLength" : 1853,
            "byteOffset" : 35500
        },
        {
            "buffer" : 0,
            "byteLength" : 2736,
            "byteOffset" : 37356
        },
        {
            "buffer" : 0,
            "byteLength" : 2736,
            "byteOffset" : 40092
        },
        {
            "buffer" : 0,
            "byteLength" : 1824,
            "byteOffset" : 42828
        },
        {
            "buffer" : 0,
            "byteLength" : 684,
            "byteOffset" : 44652
        },
        {
            "buffer" : 0,
            "byteLength" : 2736,
            "byteOffset" : 45336
        },
        {
            "buffer" : 0,
            "byteLength" : 2736,
            "byteOffset" : 48072
        },
        {
            "buffer" : 0,
            "byteLength" : 1824,
            "byteOffset" : 50808
        },
        {
            "buffer" : 0,
            "byteLength" : 684,
            "byteOffset" : 52632
        }
    ],
    "samplers" : [
        {
            "magFilter" : 9728,
            "minFilter" : 9984
        }
    ],
    "buffers" : [
        {
            "byteLength" : 53316,
            "uri" : "data:application/octet-stream;base64,"
        }
    ]
}
